<svg width="35" height="36" viewBox="0 0 35 36" fill="none" xmlns="http://www.w3.org/2000/svg">
<path d="M17.4999 3.8641C17.1869 3.8641 16.9347 3.61058 16.9347 3.29892V0.815183C16.9347 0.502152 17.1883 0.25 17.4999 0.25C17.8116 0.25 18.0651 0.503525 18.0651 0.815183V3.29755C18.0651 3.61066 17.8117 3.8641 17.4999 3.8641ZM10.2745 5.80074C10.1751 5.80084 10.0775 5.77477 9.99138 5.72516C9.9053 5.67556 9.83379 5.60416 9.78404 5.51815L8.5429 3.36819C8.38635 3.09804 8.4792 2.75174 8.74927 2.59519C9.01943 2.43863 9.36573 2.53148 9.52228 2.80156L10.7635 4.95151C10.9201 5.22167 10.8272 5.56797 10.5571 5.72452C10.4711 5.7741 10.3737 5.80037 10.2745 5.80074ZM4.98411 11.0896C4.88488 11.0893 4.78747 11.063 4.70151 11.0134L2.55156 9.7722C2.42168 9.69706 2.32698 9.57341 2.28828 9.42844C2.24957 9.28347 2.27005 9.12907 2.34519 8.99919C2.42033 8.86932 2.54398 8.77461 2.68895 8.73591C2.83392 8.69721 2.98832 8.71768 3.1182 8.79282L5.26815 10.034C5.37592 10.0965 5.46008 10.1927 5.5076 10.3078C5.55512 10.4229 5.56333 10.5505 5.53097 10.6708C5.49861 10.791 5.42748 10.8973 5.32861 10.973C5.22974 11.0487 5.10865 11.0897 4.98411 11.0896ZM3.04755 18.3152H0.565183C0.252152 18.3152 0 18.0617 0 17.75C0 17.4383 0.253525 17.1848 0.565183 17.1848H3.04755C3.36058 17.1848 3.61273 17.4383 3.61273 17.75C3.61273 18.0617 3.36058 18.3152 3.04755 18.3152ZM2.83423 26.7832C2.70969 26.7833 2.5886 26.7423 2.48973 26.6666C2.39085 26.5909 2.31972 26.4846 2.28736 26.3644C2.255 26.2441 2.26322 26.1165 2.31073 26.0014C2.35825 25.8863 2.44242 25.7901 2.55019 25.7276L4.70014 24.4864C4.9703 24.3299 5.31659 24.4227 5.47315 24.6928C5.62971 24.9629 5.53685 25.3092 5.26678 25.4658L3.11682 26.707C3.03094 26.7568 2.93348 26.783 2.83423 26.7832ZM9.03186 32.981C8.93254 32.9809 8.83499 32.9546 8.74902 32.9049C8.66306 32.8551 8.59171 32.7836 8.54215 32.6975C8.49259 32.6115 8.46656 32.5139 8.4667 32.4145C8.46683 32.3152 8.49311 32.2177 8.5429 32.1317L9.78412 29.9818C9.82133 29.9175 9.87084 29.8611 9.92982 29.8159C9.9888 29.7708 10.0561 29.7377 10.1279 29.7185C10.1997 29.6993 10.2745 29.6945 10.3482 29.7043C10.4218 29.714 10.4928 29.7382 10.5571 29.7754C10.6214 29.8126 10.6778 29.8621 10.723 29.9211C10.7681 29.9801 10.8012 30.0474 10.8204 30.1192C10.8396 30.1909 10.8444 30.2658 10.8347 30.3394C10.8249 30.4131 10.8007 30.4841 10.7635 30.5484L9.52228 32.6984C9.47253 32.7844 9.40102 32.8558 9.31493 32.9054C9.22885 32.955 9.13122 32.981 9.03186 32.981ZM17.4999 35.25C17.1869 35.25 16.9347 34.9965 16.9347 34.6848V32.2025C16.9347 31.8893 17.1883 31.6373 17.4999 31.6373C17.8116 31.6373 18.0651 31.8908 18.0651 32.2025V34.6848C18.0651 34.9965 17.8117 35.25 17.4999 35.25ZM25.9667 32.981C25.8673 32.981 25.7697 32.955 25.6836 32.9054C25.5975 32.8558 25.526 32.7844 25.4763 32.6984L24.235 30.5484C24.0785 30.2782 24.1713 29.932 24.4429 29.7754C24.713 29.6188 25.0593 29.7117 25.2159 29.9818L26.4571 32.1317C26.6137 32.4019 26.5208 32.7482 26.2493 32.9047C26.1637 32.9553 26.066 32.9816 25.9667 32.981ZM32.1643 26.7832C32.0651 26.783 31.9676 26.7568 31.8817 26.707L29.7318 25.4658C29.602 25.3906 29.5073 25.267 29.4683 25.1222C29.4294 24.9773 29.4494 24.8229 29.5239 24.6928C29.6805 24.4226 30.0268 24.3299 30.297 24.4864L32.4469 25.7276C32.5767 25.8029 32.6714 25.9264 32.7103 26.0713C32.7493 26.2161 32.7293 26.3705 32.6547 26.5006C32.5508 26.6822 32.3596 26.7832 32.1643 26.7832ZM34.4334 18.3152H31.951C31.6379 18.3152 31.3858 18.0617 31.3858 17.75C31.3858 17.4383 31.6393 17.1848 31.951 17.1848H34.4334C34.7465 17.1848 34.9985 17.4383 34.9985 17.75C34.9985 18.0617 34.7464 18.3152 34.4334 18.3152ZM30.0157 11.0896C29.9164 11.0897 29.8187 11.0637 29.7327 11.0141C29.6466 10.9645 29.5751 10.8931 29.5253 10.8071C29.3688 10.5369 29.4616 10.1906 29.7331 10.034L31.8831 8.79282C32.1533 8.63626 32.4996 8.72912 32.6561 8.99919C32.8127 9.26935 32.7198 9.61565 32.4483 9.7722L30.2983 11.0134C30.2124 11.063 30.115 11.0893 30.0157 11.0896ZM24.7255 5.80074C24.6262 5.80055 24.5288 5.77427 24.4429 5.72452C24.1727 5.56797 24.0799 5.22167 24.235 4.95151L25.4763 2.80156C25.6328 2.5314 25.9791 2.43863 26.2493 2.59519C26.5194 2.75174 26.6122 3.09804 26.4571 3.36819L25.2159 5.51815C25.1659 5.60395 25.0943 5.67518 25.0083 5.72475C24.9223 5.77433 24.8248 5.80053 24.7255 5.80074ZM17.4999 18.3152H11.7732C11.4602 18.3152 11.2081 18.0617 11.2081 17.75C11.2081 17.4383 11.4616 17.1848 11.7732 17.1848H16.9334V9.05749C16.9334 8.74446 17.1869 8.4923 17.4985 8.4923C17.8102 8.4923 18.0637 8.74583 18.0637 9.05749V17.75C18.0651 18.063 17.8117 18.3152 17.4999 18.3152Z" fill="#595959"/>
</svg>
