<svg width="18" height="19" viewBox="0 0 18 19" fill="none" xmlns="http://www.w3.org/2000/svg">
<path d="M9.0391 8.25478C8.89865 8.39541 8.81976 8.58603 8.81976 8.78478C8.81976 8.98353 8.89865 9.17416 9.0391 9.31478C9.50753 9.80064 9.76425 10.4524 9.75301 11.1272C9.74176 11.802 9.46346 12.4448 8.9791 12.9148L5.8191 16.0748C5.34743 16.5587 4.70412 16.8374 4.02846 16.8505C3.35281 16.8636 2.69918 16.6101 2.2091 16.1448C1.97722 15.911 1.79483 15.6329 1.67284 15.3271C1.55085 15.0212 1.49176 14.694 1.4991 14.3648C1.50947 13.6762 1.78953 13.0191 2.2791 12.5348L5.4291 9.37478C5.49986 9.30584 5.55609 9.22342 5.59449 9.13239C5.63289 9.04137 5.65267 8.94358 5.65267 8.84478C5.65267 8.74599 5.63289 8.6482 5.59449 8.55717C5.55609 8.46614 5.49986 8.38373 5.4291 8.31478C5.28847 8.17433 5.09785 8.09544 4.8991 8.09544C4.70035 8.09544 4.50972 8.17433 4.3691 8.31478L1.2191 11.4748C0.454781 12.2365 0.0171849 13.2659 -0.000901579 14.3448C-0.012438 14.8745 0.0835206 15.401 0.281177 15.8926C0.478834 16.3841 0.774087 16.8305 1.1491 17.2048C1.89822 17.9425 2.90769 18.3557 3.9591 18.3548C4.50212 18.3534 5.03954 18.2449 5.54059 18.0356C6.04164 17.8262 6.49648 17.5201 6.8791 17.1348L10.0391 13.9848C10.8025 13.2305 11.2372 12.2053 11.2484 11.1321C11.2596 10.059 10.8466 9.02486 10.0991 8.25478C10.0302 8.18402 9.94774 8.12779 9.85671 8.08939C9.76569 8.05099 9.66789 8.03121 9.5691 8.03121C9.47031 8.03121 9.37251 8.05099 9.28149 8.08939C9.19046 8.12779 9.10804 8.18402 9.0391 8.25478Z" fill="#D9D9D9"/>
<path d="M16.3491 2.00478C15.579 1.25618 14.5436 0.843232 13.4696 0.856352C12.3957 0.869472 11.3707 1.30759 10.6191 2.07478L7.4591 5.22478C6.69566 5.97904 6.26103 7.0043 6.2498 8.07743C6.23856 9.15056 6.65163 10.1847 7.3991 10.9548C7.46799 11.0254 7.55048 11.0812 7.64157 11.119C7.73266 11.1569 7.83047 11.1758 7.9291 11.1748C8.02764 11.1752 8.12528 11.156 8.21629 11.1182C8.3073 11.0805 8.38985 11.0249 8.4591 10.9548C8.59955 10.8142 8.67844 10.6235 8.67844 10.4248C8.67844 10.226 8.59955 10.0354 8.4591 9.89478C7.99066 9.40893 7.73394 8.75719 7.74519 8.08238C7.75644 7.40758 8.03473 6.76476 8.5191 6.29478L11.6791 3.13478C12.1508 2.65083 12.7941 2.37213 13.4697 2.35903C14.1454 2.34593 14.799 2.59948 15.2891 3.06478C15.521 3.29854 15.7034 3.57665 15.8254 3.88248C15.9473 4.18831 16.0064 4.5156 15.9991 4.84478C15.9887 5.53338 15.7087 6.19043 15.2191 6.67478L12.0691 9.83478C11.9983 9.90373 11.9421 9.98614 11.9037 10.0772C11.8653 10.1682 11.8455 10.266 11.8455 10.3648C11.8455 10.4636 11.8653 10.5614 11.9037 10.6524C11.9421 10.7434 11.9983 10.8258 12.0691 10.8948C12.2097 11.0352 12.4003 11.1141 12.5991 11.1141C12.7978 11.1141 12.9885 11.0352 13.1291 10.8948L16.2791 7.73478C17.0434 6.9731 17.481 5.94367 17.4991 4.86478C17.5106 4.33509 17.4147 3.80856 17.217 3.317C17.0194 2.82543 16.7241 2.37904 16.3491 2.00478Z" fill="#D9D9D9"/>
</svg>
