<svg width="18" height="18" viewBox="0 0 18 18" fill="none" xmlns="http://www.w3.org/2000/svg">
<path d="M9.53907 7.89937C9.39862 8.03999 9.31973 8.23062 9.31973 8.42937C9.31973 8.62812 9.39862 8.81874 9.53907 8.95937C10.0075 9.44522 10.2642 10.097 10.253 10.7718C10.2417 11.4466 9.96343 12.0894 9.47907 12.5594L6.31907 15.7194C5.84739 16.2033 5.20409 16.482 4.52843 16.4951C3.85278 16.5082 3.19915 16.2547 2.70907 15.7894C2.47718 15.5556 2.2948 15.2775 2.17281 14.9717C2.05082 14.6658 1.99173 14.3385 1.99907 14.0094C2.00944 13.3208 2.2895 12.6637 2.77907 12.1794L5.92907 9.01937C5.99983 8.95042 6.05606 8.868 6.09446 8.77698C6.13286 8.68595 6.15264 8.58816 6.15264 8.48937C6.15264 8.39057 6.13286 8.29278 6.09446 8.20175C6.05606 8.11073 5.99983 8.02831 5.92907 7.95937C5.78844 7.81892 5.59782 7.74003 5.39907 7.74003C5.20032 7.74003 5.00969 7.81892 4.86907 7.95937L1.71907 11.1194C0.95475 11.881 0.517154 12.9105 0.499068 13.9894C0.487531 14.5191 0.58349 15.0456 0.781147 15.5371C0.978804 16.0287 1.27406 16.4751 1.64907 16.8494C2.39819 17.5871 3.40766 18.0002 4.45907 17.9994C5.00209 17.998 5.53951 17.8895 6.04056 17.6801C6.54161 17.4708 6.99645 17.1647 7.37907 16.7794L10.5391 13.6294C11.3025 12.8751 11.7371 11.8498 11.7484 10.7767C11.7596 9.70358 11.3465 8.66945 10.5991 7.89937C10.5301 7.82861 10.4477 7.77237 10.3567 7.73398C10.2657 7.69558 10.1679 7.6758 10.0691 7.6758C9.97027 7.6758 9.87248 7.69558 9.78146 7.73398C9.69043 7.77237 9.60801 7.82861 9.53907 7.89937Z" fill="#595959"/>
<path d="M16.8491 1.64937C16.0789 0.900764 15.0435 0.487817 13.9696 0.500937C12.8957 0.514056 11.8707 0.952174 11.1191 1.71937L7.95907 4.86937C7.19563 5.62363 6.761 6.64889 6.74977 7.72202C6.73853 8.79515 7.15159 9.82929 7.89907 10.5994C7.96796 10.6699 8.05045 10.7258 8.14154 10.7636C8.23263 10.8014 8.33044 10.8204 8.42907 10.8194C8.52761 10.8198 8.62525 10.8006 8.71626 10.7628C8.80727 10.7251 8.88982 10.6695 8.95907 10.5994C9.09952 10.4587 9.17841 10.2681 9.17841 10.0694C9.17841 9.87061 9.09952 9.67999 8.95907 9.53937C8.49063 9.05351 8.23391 8.40177 8.24516 7.72697C8.25641 7.05217 8.5347 6.40934 9.01907 5.93937L12.1791 2.77937C12.6507 2.29542 13.294 2.01672 13.9697 2.00362C14.6454 1.99052 15.299 2.24406 15.7891 2.70937C16.0209 2.94313 16.2033 3.22123 16.3253 3.52707C16.4473 3.8329 16.5064 4.16018 16.4991 4.48937C16.4887 5.17796 16.2086 5.83502 15.7191 6.31937L12.5691 9.47937C12.4983 9.54831 12.4421 9.63073 12.4037 9.72175C12.3653 9.81278 12.3455 9.91057 12.3455 10.0094C12.3455 10.1082 12.3653 10.206 12.4037 10.297C12.4421 10.388 12.4983 10.4704 12.5691 10.5394C12.7097 10.6798 12.9003 10.7587 13.0991 10.7587C13.2978 10.7587 13.4884 10.6798 13.6291 10.5394L16.7791 7.37937C17.5434 6.61769 17.981 5.58826 17.9991 4.50937C18.0106 3.97968 17.9146 3.45315 17.717 2.96158C17.5193 2.47002 17.2241 2.02362 16.8491 1.64937Z" fill="#595959"/>
</svg>
