<svg width="20" height="21" viewBox="0 0 20 21" fill="none" xmlns="http://www.w3.org/2000/svg">
<path fill-rule="evenodd" clip-rule="evenodd" d="M9 0.25H4C2.93913 0.25 1.92172 0.671427 1.17157 1.42157C0.421427 2.17172 0 3.18913 0 4.25V16.25C0 17.3109 0.421427 18.3283 1.17157 19.0784C1.92172 19.8286 2.93913 20.25 4 20.25H16C17.0609 20.25 18.0783 19.8286 18.8284 19.0784C19.5786 18.3283 20 17.3109 20 16.25V11.25C20 10.9848 19.8946 10.7304 19.7071 10.5429C19.5196 10.3554 19.2652 10.25 19 10.25C18.7348 10.25 18.4804 10.3554 18.2929 10.5429C18.1054 10.7304 18 10.9848 18 11.25V16.25C18 16.7804 17.7893 17.2891 17.4142 17.6642C17.0391 18.0393 16.5304 18.25 16 18.25H4C3.46957 18.25 2.96086 18.0393 2.58579 17.6642C2.21071 17.2891 2 16.7804 2 16.25V4.25C2 3.71957 2.21071 3.21086 2.58579 2.83579C2.96086 2.46071 3.46957 2.25 4 2.25H9C9.26522 2.25 9.51957 2.14464 9.70711 1.95711C9.89464 1.76957 10 1.51522 10 1.25C10 0.984784 9.89464 0.73043 9.70711 0.542893C9.51957 0.355357 9.26522 0.25 9 0.25ZM15.7324 3.10355C16.0474 2.78857 15.8243 2.25 15.3789 2.25H13C12.7348 2.25 12.4804 2.14464 12.2929 1.95711C12.1054 1.76957 12 1.51522 12 1.25C12 0.984784 12.1054 0.73043 12.2929 0.542893C12.4804 0.355357 12.7348 0.25 13 0.25H19C19.2652 0.25 19.5196 0.355357 19.7071 0.542893C19.8946 0.73043 20 0.984784 20 1.25V7.25C20 7.51522 19.8946 7.76957 19.7071 7.95711C19.5196 8.14464 19.2652 8.25 19 8.25C18.7348 8.25 18.4804 8.14464 18.2929 7.95711C18.1054 7.76957 18 7.51522 18 7.25V4.87111C18 4.42565 17.4614 4.20257 17.1464 4.51755L10.707 10.957C10.5184 11.1392 10.2658 11.24 10.0036 11.2377C9.7414 11.2354 9.49059 11.1302 9.30518 10.9448C9.11977 10.7594 9.0146 10.5086 9.01233 10.2464C9.01005 9.9842 9.11084 9.7316 9.293 9.543L15.7324 3.10355Z" fill="#595959"/>
</svg>
