<svg width="20" height="16" viewBox="0 0 20 16" fill="none" xmlns="http://www.w3.org/2000/svg">
<path d="M0.888397 2.77509C0.888397 2.59388 0.960381 2.4201 1.08851 2.29197C1.21664 2.16384 1.39043 2.09186 1.57163 2.09186H3.00642C3.51678 2.09012 4.02105 2.20276 4.48216 2.42149C4.94327 2.64022 5.34952 2.95949 5.67104 3.35584L7.5841 5.70617C7.64085 5.77605 7.68323 5.85647 7.70881 5.94279C7.73438 6.02911 7.74265 6.11963 7.73312 6.20915C7.7236 6.29868 7.69647 6.38543 7.65331 6.46444C7.61015 6.54345 7.5518 6.61315 7.48161 6.66953C7.41173 6.72628 7.33131 6.76866 7.24499 6.79424C7.15867 6.81981 7.06815 6.82807 6.97863 6.81855C6.8891 6.80903 6.80235 6.78191 6.72334 6.73874C6.64433 6.69558 6.57463 6.63723 6.51825 6.56704L4.60519 4.21671C4.41228 3.97891 4.16853 3.78735 3.89187 3.65611C3.6152 3.52487 3.31264 3.45728 3.00642 3.45832H1.57163C1.39043 3.45832 1.21664 3.38634 1.08851 3.25821C0.960381 3.13008 0.888397 2.9563 0.888397 2.77509ZM19.7115 13.1398L17.6618 11.7733C17.561 11.708 17.4447 11.6705 17.3248 11.6645C17.2048 11.6585 17.0854 11.6843 16.9786 11.7391C16.8669 11.7954 16.7728 11.8812 16.7066 11.9872C16.6403 12.0932 16.6044 12.2154 16.6028 12.3404V13.0236H14.4848C14.1809 13.0226 13.881 12.9541 13.6068 12.8229C13.3327 12.6917 13.0911 12.5012 12.8997 12.2652L10.9866 9.91489C10.8724 9.77355 10.7068 9.68335 10.5262 9.66413C10.3455 9.64491 10.1646 9.69825 10.0232 9.81241C9.8819 9.92657 9.7917 10.0922 9.77248 10.2729C9.75326 10.4535 9.8066 10.6344 9.92076 10.7758L11.8202 13.1261C12.1417 13.5224 12.5479 13.8417 13.009 14.0604C13.4701 14.2792 13.9744 14.3918 14.4848 14.3901H16.6028V15.0733C16.6031 15.1969 16.637 15.3181 16.7007 15.424C16.7645 15.5299 16.8558 15.6165 16.9649 15.6746C17.0717 15.7294 17.1912 15.7551 17.3111 15.7491C17.4311 15.7431 17.5473 15.7056 17.6481 15.6404L19.6978 14.2739C19.7909 14.2114 19.8671 14.127 19.9198 14.0281C19.9724 13.9292 20 13.8189 20 13.7068C20 13.5948 19.9724 13.4845 19.9198 13.3856C19.8671 13.2867 19.7909 13.2023 19.6978 13.1398H19.7115ZM14.4848 3.45832H16.6028V4.14156C16.6031 4.26516 16.637 4.38635 16.7007 4.49223C16.7645 4.59812 16.8558 4.68471 16.9649 4.74281C17.0717 4.79766 17.1912 4.82339 17.3111 4.81739C17.4311 4.8114 17.5473 4.77389 17.6481 4.70864L19.6978 3.34217C19.7909 3.27968 19.8671 3.19526 19.9198 3.09637C19.9724 2.99748 20 2.88714 20 2.77509C20 2.66304 19.9724 2.5527 19.9198 2.45381C19.8671 2.35492 19.7909 2.2705 19.6978 2.20801L17.6481 0.841536C17.5443 0.78157 17.4265 0.75 17.3065 0.75C17.1866 0.75 17.0688 0.78157 16.9649 0.841536C16.8608 0.896782 16.7727 0.978042 16.7092 1.07741C16.6458 1.17678 16.6091 1.29089 16.6028 1.40862V2.09186H14.4848C13.9744 2.09012 13.4701 2.20276 13.009 2.42149C12.5479 2.64022 12.1417 2.95949 11.8202 3.35584L4.57786 12.2379C4.39055 12.4771 4.15238 12.6718 3.8806 12.8077C3.60882 12.9435 3.31022 13.0173 3.00642 13.0236H1.57163C1.39043 13.0236 1.21664 13.0956 1.08851 13.2237C0.960381 13.3519 0.888397 13.5256 0.888397 13.7068C0.888397 13.888 0.960381 14.0618 1.08851 14.19C1.21664 14.3181 1.39043 14.3901 1.57163 14.3901H3.00642C3.51678 14.3918 4.02105 14.2792 4.48216 14.0604C4.94327 13.8417 5.34952 13.5224 5.67104 13.1261L12.9133 4.24404C13.1006 4.00479 13.3388 3.81017 13.6106 3.67428C13.8824 3.53839 14.181 3.46462 14.4848 3.45832Z" fill="#595959"/>
</svg>
