<svg width="18" height="16" viewBox="0 0 18 16" fill="none" xmlns="http://www.w3.org/2000/svg">
<path d="M15.7632 8.37973V12.0534C15.7632 12.2279 15.6939 12.3952 15.5705 12.5186C15.4471 12.642 15.2798 12.7113 15.1053 12.7113C14.9308 12.7113 14.7635 12.642 14.6401 12.5186C14.5167 12.3952 14.4474 12.2279 14.4474 12.0534V11.6587C14.4464 11.5194 14.3906 11.3861 14.2921 11.2877C14.1936 11.1892 14.0603 11.1334 13.9211 11.1324C13.7816 11.1328 13.648 11.1884 13.5494 11.287C13.4508 11.3856 13.3952 11.5192 13.3948 11.6587V14.9481C13.3948 15.1226 13.3254 15.29 13.2021 15.4133C13.0787 15.5367 12.9113 15.606 12.7369 15.606C12.5624 15.606 12.395 15.5367 12.2717 15.4133C12.1483 15.29 12.079 15.1226 12.079 14.9481V12.8429C12.079 12.6684 12.0097 12.5011 11.8863 12.3777C11.7629 12.2543 11.5956 12.185 11.4211 12.185C11.2466 12.185 11.0792 12.2543 10.9559 12.3777C10.8325 12.5011 10.7632 12.6684 10.7632 12.8429V13.6324C10.7632 13.8068 10.6939 13.9742 10.5705 14.0976C10.4471 14.2209 10.2798 14.2903 10.1053 14.2903C9.93079 14.2903 9.76346 14.2209 9.64008 14.0976C9.5167 13.9742 9.44738 13.8068 9.44738 13.6324V11.3771C12.0948 11.2087 14.3974 9.78236 15.7632 8.37973ZM5.23686 10.5245V13.106C5.23686 13.2805 5.16754 13.4479 5.04417 13.5712C4.92079 13.6946 4.75345 13.7639 4.57896 13.7639C4.40448 13.7639 4.23714 13.6946 4.11376 13.5712C3.99038 13.4479 3.92107 13.2805 3.92107 13.106V11.0008C3.92107 10.8263 3.85176 10.659 3.72838 10.5356C3.605 10.4122 3.43766 10.3429 3.26317 10.3429C3.08869 10.3429 2.92135 10.4122 2.79797 10.5356C2.67459 10.659 2.60528 10.8263 2.60528 11.0008V11.2639C2.60528 11.4384 2.53597 11.6058 2.41259 11.7291C2.28921 11.8525 2.12187 11.9218 1.94738 11.9218C1.7729 11.9218 1.60556 11.8525 1.48218 11.7291C1.3588 11.6058 1.28949 11.4384 1.28949 11.2639V7.32446C2.32289 8.69875 3.67852 9.79771 5.23686 10.5245Z" fill="url(#paint0_linear_415_3)"/>
<path d="M8.92105 11.6587C4.325 11.6587 0.5 7.64605 0.5 6.13236C0.5 4.61868 4.325 0.606049 8.92105 0.606049C13.6974 0.606049 17.3421 4.52973 17.3421 6.13236C17.3421 7.735 13.6974 11.6587 8.92105 11.6587ZM8.92105 1.13236C4.47816 1.13236 1.02632 5.12052 1.02632 6.13236C1.02632 7.14421 4.47816 11.1324 8.92105 11.1324C13.23 11.1324 16.8158 7.50079 16.8158 6.13236C16.8158 4.76394 13.23 1.13236 8.92105 1.13236Z" fill="white"/>
<path d="M11.25 6.10605C11.25 7.34869 10.2426 8.35605 9 8.35605C7.75736 8.35605 6.75 7.34869 6.75 6.10605C6.75 4.86341 7.75736 3.85605 9 3.85605C10.2426 3.85605 11.25 4.86341 11.25 6.10605Z" fill="url(#paint1_linear_415_3)" stroke="url(#paint2_linear_415_3)" stroke-width="0.5"/>
<defs>
<linearGradient id="paint0_linear_415_3" x1="1.28949" y1="11.369" x2="15.7632" y2="11.369" gradientUnits="userSpaceOnUse">
<stop stop-color="#6763FF"/>
<stop offset="1" stop-color="#8AE4FF"/>
</linearGradient>
<linearGradient id="paint1_linear_415_3" x1="6.5" y1="6.04791" x2="11.5" y2="6.04791" gradientUnits="userSpaceOnUse">
<stop stop-color="#6763FF"/>
<stop offset="1" stop-color="#8AE4FF"/>
</linearGradient>
<linearGradient id="paint2_linear_415_3" x1="6.5" y1="6.04791" x2="11.5" y2="6.04791" gradientUnits="userSpaceOnUse">
<stop stop-color="#6763FF"/>
<stop offset="1" stop-color="#8AE4FF"/>
</linearGradient>
</defs>
</svg>
