<svg width="27" height="27" viewBox="0 0 27 27" fill="none" xmlns="http://www.w3.org/2000/svg">
<path d="M13.5862 19.7082C10.0657 19.7082 7.2011 16.8436 7.2011 13.3231C7.2011 9.80255 10.0657 6.93799 13.5862 6.93799C17.1067 6.93799 19.9713 9.80255 19.9713 13.3231C19.9713 16.8443 17.1067 19.7082 13.5862 19.7082ZM13.5862 9.59165C11.5288 9.59165 9.85476 11.2657 9.85476 13.3231C9.85476 15.3804 11.5288 17.0545 13.5862 17.0545C15.6435 17.0545 17.3176 15.3804 17.3176 13.3231C17.3176 11.2657 15.6435 9.59165 13.5862 9.59165Z" fill="url(#paint0_linear_61_29)" stroke="black"/>
<path d="M19.8927 8.44846C20.7225 8.44846 21.3952 7.77579 21.3952 6.946C21.3952 6.11622 20.7225 5.44354 19.8927 5.44354C19.0629 5.44354 18.3903 6.11622 18.3903 6.946C18.3903 7.77579 19.0629 8.44846 19.8927 8.44846Z" fill="url(#paint1_linear_61_29)" stroke="black"/>
<path d="M18.8484 25.75H8.15086C4.20781 25.75 1 22.5422 1 18.5991V7.90086C1 3.95781 4.20781 0.75 8.15086 0.75H18.8491C22.7922 0.75 26 3.95781 26 7.90086V18.5991C26 22.5415 22.7915 25.75 18.8484 25.75ZM8.15086 3.40294C5.671 3.40294 3.65366 5.42027 3.65366 7.90013V18.5984C3.65366 21.0783 5.671 23.0956 8.15086 23.0956H18.8491C21.329 23.0956 23.3463 21.0783 23.3463 18.5984V7.90086C23.3463 5.421 21.329 3.40366 18.8491 3.40366H8.15086V3.40294Z" fill="url(#paint2_linear_61_29)" stroke="black"/>
<defs>
<linearGradient id="paint0_linear_61_29" x1="2.80593" y1="24.1035" x2="22.4732" y2="4.43632" gradientUnits="userSpaceOnUse">
<stop stop-color="#FEE411"/>
<stop offset="0.052" stop-color="#FEDB16"/>
<stop offset="0.138" stop-color="#FEC125"/>
<stop offset="0.248" stop-color="#FE983D"/>
<stop offset="0.376" stop-color="#FE5F5E"/>
<stop offset="0.5" stop-color="#FE2181"/>
<stop offset="1" stop-color="#9000DC"/>
</linearGradient>
<linearGradient id="paint1_linear_61_29" x1="2.77052" y1="24.0681" x2="22.4377" y2="4.4009" gradientUnits="userSpaceOnUse">
<stop stop-color="#FEE411"/>
<stop offset="0.052" stop-color="#FEDB16"/>
<stop offset="0.138" stop-color="#FEC125"/>
<stop offset="0.248" stop-color="#FE983D"/>
<stop offset="0.376" stop-color="#FE5F5E"/>
<stop offset="0.5" stop-color="#FE2181"/>
<stop offset="1" stop-color="#9000DC"/>
</linearGradient>
<linearGradient id="paint2_linear_61_29" x1="2.72579" y1="24.0235" x2="22.3931" y2="4.35619" gradientUnits="userSpaceOnUse">
<stop stop-color="#FEE411"/>
<stop offset="0.052" stop-color="#FEDB16"/>
<stop offset="0.138" stop-color="#FEC125"/>
<stop offset="0.248" stop-color="#FE983D"/>
<stop offset="0.376" stop-color="#FE5F5E"/>
<stop offset="0.5" stop-color="#FE2181"/>
<stop offset="1" stop-color="#9000DC"/>
</linearGradient>
</defs>
</svg>
