<svg xmlns="http://www.w3.org/2000/svg" version="1.1" xmlns:xlink="http://www.w3.org/1999/xlink" width="512" height="512" x="0" y="0" viewBox="0 0 512 512" style="enable-background:new 0 0 512 512" xml:space="preserve"><defs><linearGradient xlink:href="#a" id="b" x1="108.953" x2="379.394" y1="405.25" y2="134.81" gradientUnits="userSpaceOnUse"></linearGradient><linearGradient xlink:href="#a" id="c" x1="108.466" x2="378.906" y1="404.763" y2="134.323" gradientUnits="userSpaceOnUse"></linearGradient><linearGradient xlink:href="#a" id="d" x1="107.851" x2="378.292" y1="404.149" y2="133.708" gradientUnits="userSpaceOnUse"></linearGradient></defs><g><linearGradient id="a"><stop offset="0" stop-color="#fee411"></stop><stop offset=".052" stop-color="#fedb16"></stop><stop offset=".138" stop-color="#fec125"></stop><stop offset=".248" stop-color="#fe983d"></stop><stop offset=".376" stop-color="#fe5f5e"></stop><stop offset=".5" stop-color="#fe2181"></stop><stop offset="1" stop-color="#9000dc"></stop></linearGradient><linearGradient xlink:href="#a" id="b" x1="108.953" x2="379.394" y1="405.25" y2="134.81" gradientUnits="userSpaceOnUse"></linearGradient><linearGradient xlink:href="#a" id="c" x1="108.466" x2="378.906" y1="404.763" y2="134.323" gradientUnits="userSpaceOnUse"></linearGradient><linearGradient xlink:href="#a" id="d" x1="107.851" x2="378.292" y1="404.149" y2="133.708" gradientUnits="userSpaceOnUse"></linearGradient><path fill="url(&quot;#b&quot;)" d="M257.19 344.81c-48.41 0-87.8-39.39-87.8-87.8s39.39-87.8 87.8-87.8 87.8 39.39 87.8 87.8c0 48.42-39.39 87.8-87.8 87.8zm0-139.11c-28.29 0-51.31 23.02-51.31 51.31s23.02 51.31 51.31 51.31 51.31-23.02 51.31-51.31-23.02-51.31-51.31-51.31z" opacity="1" data-original="url(#b)"></path><circle cx="343.91" cy="169.32" r="20.66" fill="url(&quot;#c&quot;)" opacity="1" data-original="url(#c)"></circle><path fill="url(&quot;#d&quot;)" d="M329.55 427.89h-147.1c-54.22 0-98.33-44.11-98.33-98.33V182.45c0-54.22 44.11-98.33 98.33-98.33h147.11c54.22 0 98.33 44.11 98.33 98.33v147.11c0 54.21-44.12 98.33-98.34 98.33zM182.45 120.6c-34.1 0-61.84 27.74-61.84 61.84v147.11c0 34.1 27.74 61.84 61.84 61.84h147.11c34.1 0 61.84-27.74 61.84-61.84v-147.1c0-34.1-27.74-61.84-61.84-61.84H182.45z" opacity="1" data-original="url(#d)"></path></g></svg>